
<svg width="512" height="512" viewBox="0 0 512 512" fill="none" xmlns="http://www.w3.org/2000/svg">
  <!-- Right Page Outline (Deep Green) -->
  <path d="M256 180C320 160 400 160 432 200V380C400 340 320 340 256 360" stroke="#1e3a34" stroke-width="32" stroke-linecap="round" stroke-linejoin="round"/>
  
  <!-- Left Page Outline (Deep Green) -->
  <path d="M256 180C192 160 112 160 80 200V380C112 340 192 340 256 360" stroke="#1e3a34" stroke-width="32" stroke-linecap="round" stroke-linejoin="round"/>
  
  <!-- Spine (Center Line) -->
  <path d="M256 180V400" stroke="#1e3a34" stroke-width="24" stroke-linecap="round"/>

  <!-- Page Text Lines (Gold) -->
  <path d="M300 240C340 230 380 235 400 250" stroke="#d4af37" stroke-width="14" stroke-linecap="round" opacity="0.6"/>
  <path d="M300 290C340 280 380 285 400 300" stroke="#d4af37" stroke-width="14" stroke-linecap="round" opacity="0.6"/>
  
  <path d="M212 240C172 230 132 235 112 250" stroke="#d4af37" stroke-width="14" stroke-linecap="round" opacity="0.6"/>
  <path d="M212 290C172 280 132 285 112 300" stroke="#d4af37" stroke-width="14" stroke-linecap="round" opacity="0.6"/>

  <!-- The Insight Star (Basirah Light) - Geometric Star -->
  <path d="M256 60L275 95L315 100L285 130L295 170L256 150L217 170L227 130L197 100L237 95L256 60Z" fill="#d4af37"/>
  <circle cx="256" cy="115" r="10" fill="#1e3a34"/>
</svg>
