<svg viewBox="0 0 100 100" fill="none" xmlns="http://www.w3.org/2000/svg">
  <!-- Book Outline -->
  <path d="M50 82 C35 88 15 80 15 70 V30 C15 40 35 48 50 42" stroke="#1e3a34" stroke-width="6" stroke-linecap="round" stroke-linejoin="round"/>
  <path d="M50 82 C65 88 85 80 85 70 V30 C85 40 65 48 50 42" stroke="#1e3a34" stroke-width="6" stroke-linecap="round" stroke-linejoin="round"/>
  
  <!-- Center Spine -->
  <path d="M50 42 V82" stroke="#1e3a34" stroke-width="4" stroke-linecap="round"/>

  <!-- Decorative Lines - Gold Accent -->
  <path d="M25 50 H40" stroke="#d4af37" stroke-width="4" stroke-linecap="round" />
  <path d="M25 62 H40" stroke="#d4af37" stroke-width="4" stroke-linecap="round" />
  
  <path d="M60 50 H75" stroke="#d4af37" stroke-width="4" stroke-linecap="round" />
  <path d="M60 62 H75" stroke="#d4af37" stroke-width="4" stroke-linecap="round" />

  <!-- Star Symbol -->
  <!-- Yellow Star Polygon -->
  <polygon points="50,10 53,16 59,16 54,20 56,26 50,23 44,26 46,20 41,16 47,16" fill="#d4af37" />
  <!-- Green Dot Center -->
  <circle cx="50" cy="19" r="1.5" fill="#1e3a34" />
  <!-- Impulse Lines -->
  <path d="M35 19 H 28" stroke="#d4af37" stroke-width="2" stroke-linecap="round" />
  <path d="M65 19 H 72" stroke="#d4af37" stroke-width="2" stroke-linecap="round" />
</svg>